<?xml version="1.0" encoding="UTF-8"?>
<svg width="135px" height="40px" viewBox="0 0 135 40" version="1.1" xmlns="http://www.w3.org/2000/svg" xmlns:xlink="http://www.w3.org/1999/xlink">
    <title>Store=Google Play, Color=Black, Language=English</title>
    <defs>
        <linearGradient x1="61.2933315%" y1="4.4329345%" x2="25.9609885%" y2="72.1638613%" id="linearGradient-1">
            <stop stop-color="#00A0FF" offset="0%"></stop>
            <stop stop-color="#00A1FF" offset="0.657445%"></stop>
            <stop stop-color="#00BEFF" offset="26.01%"></stop>
            <stop stop-color="#00D2FF" offset="51.22%"></stop>
            <stop stop-color="#00DFFF" offset="76.04%"></stop>
            <stop stop-color="#00E3FF" offset="100%"></stop>
        </linearGradient>
        <linearGradient x1="107.591608%" y1="49.1318785%" x2="-130.466491%" y2="49.1318785%" id="linearGradient-2">
            <stop stop-color="#FFE000" offset="0%"></stop>
            <stop stop-color="#FFBD00" offset="40.87%"></stop>
            <stop stop-color="#FFA500" offset="77.54%"></stop>
            <stop stop-color="#FF9C00" offset="100%"></stop>
        </linearGradient>
        <linearGradient x1="86.7260605%" y1="30.6719286%" x2="-50.4797474%" y2="137.050545%" id="linearGradient-3">
            <stop stop-color="#FF3A44" offset="0%"></stop>
            <stop stop-color="#C31162" offset="100%"></stop>
        </linearGradient>
        <linearGradient x1="-19.3296811%" y1="-12.4113711%" x2="41.8412112%" y2="34.9405789%" id="linearGradient-4">
            <stop stop-color="#32A071" offset="0%"></stop>
            <stop stop-color="#2DA771" offset="6.85%"></stop>
            <stop stop-color="#15CF74" offset="47.62%"></stop>
            <stop stop-color="#06E775" offset="80.09%"></stop>
            <stop stop-color="#00F076" offset="100%"></stop>
        </linearGradient>
        <linearGradient x1="3413.05%" y1="-2064.5%" x2="-8625.33%" y2="-2064.5%" id="linearGradient-5">
            <stop stop-color="#CCB300" offset="0%"></stop>
            <stop stop-color="#CC9700" offset="40.87%"></stop>
            <stop stop-color="#CC8400" offset="77.54%"></stop>
            <stop stop-color="#CC7D00" offset="100%"></stop>
        </linearGradient>
        <linearGradient x1="86.247362%" y1="30.5606427%" x2="-50.1415376%" y2="101.910019%" id="linearGradient-6">
            <stop stop-color="#CC2E36" offset="0%"></stop>
            <stop stop-color="#9C0E4E" offset="100%"></stop>
        </linearGradient>
        <linearGradient x1="308.093175%" y1="-1431.64075%" x2="-66.645691%" y2="-349.533437%" id="linearGradient-7">
            <stop stop-color="#008DE0" offset="0%"></stop>
            <stop stop-color="#008DE0" offset="0.657445%"></stop>
            <stop stop-color="#00A7E0" offset="26.01%"></stop>
            <stop stop-color="#00B8E0" offset="51.22%"></stop>
            <stop stop-color="#00C4E0" offset="76.04%"></stop>
            <stop stop-color="#00C7E0" offset="100%"></stop>
        </linearGradient>
        <linearGradient x1="7191.7%" y1="-4990.15%" x2="-4130.7%" y2="6332.75%" id="linearGradient-8">
            <stop stop-color="#E0333C" offset="0%"></stop>
            <stop stop-color="#AB0F56" offset="100%"></stop>
        </linearGradient>
        <linearGradient x1="112.78481%" y1="-0.0190394593%" x2="-288.223185%" y2="-0.0190394593%" id="linearGradient-9">
            <stop stop-color="#E0C500" offset="0%"></stop>
            <stop stop-color="#E0A600" offset="40.87%"></stop>
            <stop stop-color="#E09100" offset="77.54%"></stop>
            <stop stop-color="#E08900" offset="100%"></stop>
        </linearGradient>
        <linearGradient x1="112.787289%" y1="100.023798%" x2="-288.196656%" y2="100.023798%" id="linearGradient-10">
            <stop stop-color="#FFE840" offset="0%"></stop>
            <stop stop-color="#FFCE40" offset="40.87%"></stop>
            <stop stop-color="#FFBC40" offset="77.54%"></stop>
            <stop stop-color="#FFB540" offset="100%"></stop>
        </linearGradient>
        <linearGradient x1="944.577815%" y1="76.6170447%" x2="-354.286633%" y2="1109.82787%" id="linearGradient-11">
            <stop stop-color="#40B8FF" offset="0%"></stop>
            <stop stop-color="#40B9FF" offset="0.657445%"></stop>
            <stop stop-color="#40CEFF" offset="26.01%"></stop>
            <stop stop-color="#40DDFF" offset="51.22%"></stop>
            <stop stop-color="#40E7FF" offset="76.04%"></stop>
            <stop stop-color="#40EAFF" offset="100%"></stop>
        </linearGradient>
        <linearGradient x1="-18.8070366%" y1="14.4797346%" x2="42.0959372%" y2="46.3419101%" id="linearGradient-12">
            <stop stop-color="#65B895" offset="0%"></stop>
            <stop stop-color="#62BD95" offset="6.85%"></stop>
            <stop stop-color="#50DB97" offset="47.62%"></stop>
            <stop stop-color="#44ED98" offset="80.09%"></stop>
            <stop stop-color="#40F498" offset="100%"></stop>
        </linearGradient>
    </defs>
    <g id="Intercards---alternative-date" stroke="none" stroke-width="1" fill="none" fill-rule="evenodd">
        <g id="Store=Google-Play,-Color=Black,-Language=English" fill-rule="nonzero">
            <path d="M129.99988,40 L5,40 C2.24999321,40 0,37.7500068 0,34.9999258 L0,5 C0,2.25000225 2.24999321,0 5,0 L129.99988,0 C132.749961,0 134.999954,2.25000225 134.999954,5 L134.999954,34.9999258 C134.999954,37.7500068 132.749961,40 129.99988,40 Z" id="Path" fill="#000000"></path>
            <path d="M129.99988,0 L5,0 C2.24999321,0 0,2.25000225 0,5 L0,34.9999258 C0,37.7500068 2.24999321,40 5,40 L129.99988,40 C132.749961,40 134.999954,37.7500068 134.999954,34.9999258 L134.999954,5 C134.999954,2.25000225 132.749961,0 129.99988,0 Z M129.99988,0.800000824 C132.316002,0.800000824 134.199975,2.6844033 134.199975,5.00000289 L134.199975,34.9999258 C134.199975,37.3160479 132.316002,39.2004223 129.99988,39.2004223 L4.99999384,39.2004223 C2.68439426,39.2004223 0.799999819,37.3160479 0.799999819,34.9999258 L0.799999819,5.00000289 C0.799999819,2.6844033 2.68439426,0.800000824 4.99999384,0.800000824 L129.99988,0.800000824 Z" id="Shape" fill="#A6A6A6"></path>
            <path d="M47.4184562,10.2433071 C47.4184562,11.0811151 47.1702212,11.7483142 46.6733494,12.2460101 C46.1089416,12.8378142 45.3732819,13.1339072 44.4689832,13.1339072 C43.6030755,13.1339072 42.8668127,12.8339148 42.2612,12.2331059 C41.6545822,11.6327192 41.3520773,10.8882154 41.3520773,9.99991633 C41.3520773,9.11121525 41.6545822,8.36711351 42.2612,7.76630462 C42.8668127,7.16591783 43.6030755,6.86550333 44.4689832,6.86550333 C44.898721,6.86550333 45.3101679,6.9495012 45.7007108,7.11711505 C46.0914546,7.28511079 46.4046125,7.50812021 46.6389784,7.78740961 L46.1117556,8.31511483 C45.7143787,7.84051379 45.1676589,7.60341428 44.4689832,7.60341428 C43.8374414,7.60341428 43.2913246,7.8253182 42.8304318,8.26940744 C42.3695389,8.71401929 42.138992,9.29050718 42.138992,9.99991633 C42.138992,10.7093054 42.3695389,11.2858134 42.8304318,11.7304051 C43.2913246,12.1745145 43.8374414,12.3964184 44.4689832,12.3964184 C45.139117,12.3964184 45.6976958,12.1733085 46.1449206,11.7265057 C46.4351645,11.4354176 46.6029994,11.0308048 46.6480234,10.51122 L44.4689832,10.51122 L44.4689832,9.79051461 L47.3766482,9.79051461 C47.4045872,9.94721415 47.4184562,10.0976023 47.4184562,10.2433071 Z" id="Path" fill="#FFFFFF"></path>
            <path d="M47.4184562,10.2434277 L47.3183582,10.2434277 C47.3175542,11.0621206 47.0785653,11.698024 46.6025974,12.175419 L46.6015924,12.176223 L46.6011904,12.1770069 C46.0546716,12.7484095 45.3523779,13.0328244 44.4691842,13.0340103 C43.6261905,13.0328244 42.9206807,12.7453141 42.3315499,12.1625148 C41.7438261,11.5785095 41.4531802,10.865623 41.4519742,10.0000168 C41.4531802,9.13402874 41.7438261,8.42152419 42.3315499,7.83792089 C42.9206807,7.2547196 43.6261905,6.9668274 44.4691842,6.9656214 C44.885857,6.9656214 45.2828319,7.04692587 45.6613148,7.20901221 C46.0401996,7.37232466 46.3394885,7.58630918 46.5623975,7.85201099 L46.6391794,7.78751011 L46.5684274,7.71681844 L46.0410036,8.24492565 L46.1117556,8.31521533 L46.1887386,8.25121695 C45.7730707,7.75311902 45.1895679,7.50202991 44.4691842,7.50351731 C43.8141254,7.50271331 43.2378586,7.73671743 42.7612878,8.19771077 C42.280094,8.6602116 42.038291,9.26912079 42.039095,10.0000168 C42.038291,10.7309129 42.280094,11.3398221 42.7612878,11.8023229 C43.2378586,12.2633162 43.8141254,12.4973204 44.4691842,12.4965164 C45.1612269,12.4977224 45.7511617,12.2629142 46.2156726,11.797318 C46.5258155,11.4863108 46.7016904,11.0555278 46.7477194,10.5199233 L46.7569654,10.411323 L44.5690812,10.411323 L44.5690812,9.89061257 L47.3766482,9.89061257 L47.3766482,9.79061511 L47.2781582,9.8082227 C47.3054942,9.95981685 47.3183582,10.1039137 47.3183582,10.2434277 L47.4184562,10.2434277 L47.518355,10.2434277 C47.518355,10.0914115 47.5042831,9.93521446 47.4749371,9.77272611 L47.4602641,9.69061764 L44.3690862,9.69061764 L44.3690862,10.5113205 L44.3690862,10.6113179 L46.6480234,10.6113179 L46.6480234,10.5113205 L46.5483275,10.5027177 C46.5043085,11.005921 46.3441115,11.3848259 46.0741686,11.6559146 C45.6444308,12.0840243 45.117208,12.2953154 44.4691842,12.2965214 C43.8609584,12.2957174 43.3449916,12.0863157 42.8999777,11.6586281 C42.4593859,11.2324278 42.240296,10.688321 42.23909,10.0000168 C42.240296,9.31171268 42.4593859,8.76762597 42.8999777,8.34142572 C43.3449916,7.91371797 43.8609584,7.70431624 44.4691842,7.70351224 C45.1453479,7.70512024 45.6558878,7.92851156 46.0351746,8.3797162 L46.1055246,8.46331207 L46.7097304,7.85822189 L46.7746534,7.79341951 L46.7155594,7.72341123 C46.4699375,7.43051414 46.1425086,7.19801752 45.7401067,7.02541888 C45.3371019,6.85231774 44.911786,6.76562492 44.4691842,6.76562492 C43.5801615,6.76482247 42.8129448,7.07731706 42.190649,7.69571344 C41.5659412,8.31292393 41.2511753,9.08872335 41.2519778,10.0000168 C41.2511753,10.9109284 41.5659412,11.6871097 42.191051,12.3047222 C42.8129448,12.9227166 43.5801615,13.2348092 44.4691842,13.2340268 C45.3949899,13.2348092 46.1628096,12.9273195 46.7457094,12.3152144 L46.6733494,12.2461106 L46.7441014,12.3168224 C47.2620782,11.7992275 47.5191571,11.100009 47.518355,10.2434277 L47.4184562,10.2434277 Z" id="Path" fill="#FFFFFF"></path>
            <polygon id="Path" fill="#FFFFFF" points="52.0275855 7.73713953 49.2951925 7.73713953 49.2951925 9.63954356 51.7594516 9.63954356 51.7594516 10.3605504 49.2951925 10.3605504 49.2951925 12.2629343 52.0275855 12.2629343 52.0275855 13.0000413 48.5249608 13.0000413 48.5249608 7.00003259 52.0275855 7.00003259"></polygon>
            <polygon id="Path" fill="#FFFFFF" points="52.0277865 7.73705913 52.0277865 7.63706166 49.1952955 7.63706166 49.1952955 9.73946063 51.6593537 9.73946063 51.6593537 10.2601509 49.1952955 10.2604524 49.1952955 12.3628514 51.9276886 12.3628514 51.9276886 12.8999634 48.6250587 12.8999634 48.6250587 7.09994965 51.9276886 7.09994965 51.9276886 7.73705913 52.0277865 7.73705913 52.0277865 7.63706166 52.0277865 7.73705913 52.1276835 7.73705913 52.1276835 6.99995219 52.1276835 6.89995472 48.4250638 6.89995472 48.4250638 13.0999583 52.1276835 13.0999583 52.1276835 12.2628539 52.1276835 12.1628565 49.3952905 12.1628565 49.3952905 10.4604474 51.8593486 10.4604474 51.8593486 9.63946316 51.8593486 9.5394456 49.3952905 9.5394456 49.3952905 7.83705659 52.1276835 7.83705659 52.1276835 7.73705913"></polygon>
            <polygon id="Path" fill="#FFFFFF" points="55.2789604 13.0000413 54.5073217 13.0000413 54.5073217 7.73713953 52.8315852 7.73713953 52.8315852 7.00003259 56.9546968 7.00003259 56.9546968 7.73713953 55.2789604 7.73713953"></polygon>
            <polygon id="Path" fill="#FFFFFF" points="55.2789604 12.9999609 55.2789604 12.8999634 54.6074196 12.8999634 54.6074196 7.63706166 52.9316832 7.63706166 52.9316832 7.09994965 56.8545988 7.09994965 56.8545988 7.63706166 55.1788624 7.63706166 55.1788624 12.9999609 55.2789604 12.9999609 55.2789604 12.8999634 55.2789604 12.9999609 55.3788574 12.9999609 55.3788574 7.83705659 57.0545938 7.83705659 57.0545938 6.99995219 57.0545938 6.89995472 52.7316883 6.89995472 52.7316883 7.73705913 52.7316883 7.83705659 54.4074247 7.83705659 54.4074247 13.0999583 55.2789604 13.0999583 55.3788574 13.0999583 55.3788574 12.9999609"></polygon>
            <polygon id="Path" fill="#FFFFFF" points="59.9379378 13.0000413 59.9379378 7.00003259 60.7085715 7.00003259 60.7085715 13.0000413"></polygon>
            <polygon id="Path" fill="#FFFFFF" points="59.9379378 12.9999609 60.0378347 12.9999609 60.0378347 7.09994965 60.6084735 7.09994965 60.6084735 12.8999634 59.9379378 12.8999634 59.9379378 12.9999609 60.0378347 12.9999609 59.9379378 12.9999609 59.9379378 13.0999583 60.7085715 13.0999583 60.8084684 13.0999583 60.8084684 6.89995472 59.9379378 6.89995472 59.8378398 6.89995472 59.8378398 13.0999583 59.9379378 13.0999583"></polygon>
            <polygon id="Path" fill="#FFFFFF" points="64.1285853 13.0000413 63.3569466 13.0000413 63.3569466 7.73713953 61.6812101 7.73713953 61.6812101 7.00003259 65.8043217 7.00003259 65.8043217 7.73713953 64.1285853 7.73713953"></polygon>
            <polygon id="Path" fill="#FFFFFF" points="64.1283843 12.9999609 64.1283843 12.8999634 63.4570445 12.8999634 63.4570445 7.63706166 61.7813081 7.63706166 61.7813081 7.09994965 65.7042237 7.09994965 65.7042237 7.63706166 64.0284873 7.63706166 64.0284873 12.9999609 64.1283843 12.9999609 64.1283843 12.8999634 64.1283843 12.9999609 64.2284822 12.9999609 64.2284822 7.83705659 65.9042187 7.83705659 65.9042187 6.99995219 65.9042187 6.89995472 61.5813132 6.89995472 61.5813132 7.73705913 61.5813132 7.83705659 63.2570496 7.83705659 63.2570496 13.0999583 64.1283843 13.0999583 64.2284822 13.0999583 64.2284822 12.9999609"></polygon>
            <path d="M69.7792963,11.7222043 C70.2233051,12.171801 70.766809,12.3964184 71.4094057,12.3964184 C72.0520025,12.3964184 72.5957073,12.171801 73.0391132,11.7222043 C73.483524,11.2726077 73.7062319,10.6979087 73.7062319,9.99991633 C73.7062319,9.30190388 73.483524,8.72720488 73.0391132,8.27760824 C72.5957073,7.8280116 72.0520025,7.60341428 71.4094057,7.60341428 C70.766809,7.60341428 70.2233051,7.8280116 69.7792963,8.27760824 C69.3358905,8.72720488 69.1131825,9.30190388 69.1131825,9.99991633 C69.1131825,10.6979087 69.3358905,11.2726077 69.7792963,11.7222043 Z M73.60935,12.2245032 C73.0194152,12.8311209 72.2859664,13.1339072 71.4094057,13.1339072 C70.532041,13.1339072 69.7987933,12.8311209 69.2102655,12.2245032 C68.6199287,11.618609 68.3262678,10.8769192 68.3262678,9.99991633 C68.3262678,9.12291344 68.6199287,8.3811031 69.2102655,7.77530941 C69.7987933,7.16861123 70.532041,6.86550333 71.4094057,6.86550333 C72.2813434,6.86550333 73.0127822,7.17021923 73.605531,7.77920881 C74.1972747,8.3882185 74.4933476,9.12842084 74.4933476,9.99991633 C74.4933476,10.8769192 74.1978777,11.618609 73.60935,12.2245032 Z" id="Shape" fill="#FFFFFF"></path>
            <path d="M69.7792963,11.7223249 L69.7081423,11.7926146 C70.1688342,12.2602208 70.743292,12.4977224 71.4094057,12.4965209 C72.0749165,12.4977224 72.6503793,12.2602208 73.1100661,11.7926146 C73.573773,11.3246265 73.8069329,10.7191142 73.8063311,10.0000168 C73.8069329,9.28091949 73.573773,8.6754273 73.1100661,8.20741906 C72.6503793,7.73981283 72.0749165,7.50231131 71.4094057,7.50351274 C70.743292,7.50231131 70.1688342,7.73981283 69.7081423,8.20741906 C69.2456415,8.6754273 69.0120796,9.28091949 69.0132809,10.0000168 C69.0120796,10.7191142 69.2456415,11.3246265 69.7081423,11.7926146 L69.7792963,11.7223249 L69.8504503,11.6520152 C69.4261394,11.2203075 69.2140845,10.6773263 69.2132805,10.0000168 C69.2140845,9.32272747 69.4261394,8.77972616 69.8504503,8.34801851 C70.2783791,7.91641137 70.7897229,7.70471824 71.4094057,7.70351224 C72.0284855,7.70471824 72.5410353,7.91641137 72.9679592,8.34801851 C73.392873,8.77972616 73.605129,9.32272747 73.605933,10.0000168 C73.605129,10.6773263 73.392873,11.2203075 72.9679592,11.6520152 C72.5410353,12.0836223 72.0284855,12.2953154 71.4094057,12.2965214 C70.7897229,12.2953154 70.2783791,12.0836223 69.8504503,11.6520152 L69.7792963,11.7223249 Z M73.60935,12.2246238 L73.537794,12.155118 C72.9645422,12.7426207 72.2632534,13.0328244 71.4094057,13.0340103 C70.554955,13.0328244 69.8538673,12.7426207 69.2816205,12.155118 L69.2788065,12.1520226 L69.2816205,12.155118 C68.7093737,11.5656254 68.4269688,10.8547087 68.4261648,10.0000168 C68.4269688,9.14532493 68.7093737,8.43442838 69.2816205,7.84491569 C69.8538673,7.257413 70.554955,6.9668274 71.4094057,6.9656214 C72.2578264,6.9668274 72.9573062,7.258619 73.533975,7.84921709 C74.1082318,8.44142318 74.3922447,9.15121423 74.3934507,10.0000168 C74.3922447,10.8547087 74.1090358,11.5656254 73.537794,12.155118 L73.60935,12.2246238 L73.6813079,12.2941094 C74.2875237,11.6715121 74.5940486,10.8992101 74.5934465,10.0000168 C74.5940486,9.10592895 74.2863177,8.33521482 73.6772879,7.70982364 C73.0678561,7.08202046 72.3046594,6.76452097 71.4094057,6.76562358 C70.509328,6.76452097 69.7437193,7.08051296 69.1383075,7.70592424 L69.1383075,7.70552224 C68.5308857,8.32852152 68.2253658,9.10082355 68.2261683,10.0000168 C68.2253658,10.8992101 68.5308857,11.6715121 69.1383075,12.2945114 L69.1409205,12.2973254 L69.1383075,12.2941094 C69.7437193,12.9195207 70.509328,13.2348092 71.4094057,13.2340268 C72.3088804,13.2348092 73.0744891,12.9195207 73.6813079,12.2941094 L73.60935,12.2246238 Z" id="Shape" fill="#FFFFFF"></path>
            <polygon id="Path" fill="#FFFFFF" points="75.5753303 13.0000413 75.5753303 7.00003259 76.5135979 7.00003259 79.4297049 11.6676328 79.4628699 11.6676328 79.4297049 10.5113406 79.4297049 7.00003259 80.2011426 7.00003259 80.2011426 13.0000413 79.3965399 13.0000413 76.345763 8.1062357 76.312397 8.1062357 76.345763 9.26295009 76.345763 13.0000413"></polygon>
            <polygon id="Path" fill="#FFFFFF" points="75.5753303 12.9999609 75.6754282 12.9999609 75.6754282 7.09994965 76.458122 7.09994965 79.3742289 11.7675499 79.4628699 11.7675499 79.5655809 11.7675499 79.5296019 10.5097527 79.5296019 7.09994965 80.1012457 7.09994965 80.1012457 12.8999634 79.4520159 12.8999634 76.401239 8.00615783 76.312397 8.00615783 76.209686 8.00615783 76.245665 9.26445759 76.245665 12.8999634 75.5753303 12.8999634 75.5753303 12.9999609 75.6754282 12.9999609 75.5753303 12.9999609 75.5753303 13.0999583 76.345562 13.0999583 76.44566 13.0999583 76.44566 9.26126169 76.412495 8.1034619 76.312397 8.1061553 76.312397 8.20615276 76.345562 8.20615276 76.345562 8.1061553 76.260941 8.15935998 79.3408629 13.0999583 80.2011426 13.0999583 80.3012406 13.0999583 80.3012406 6.89995472 79.4297049 6.89995472 79.3296069 6.89995472 79.3296069 10.5124461 79.3627719 11.6702458 79.4628699 11.6675524 79.4628699 11.567555 79.4297049 11.567555 79.4297049 11.6675524 79.5145269 11.6144483 76.5690739 6.89995472 75.5753303 6.89995472 75.4754333 6.89995472 75.4754333 13.0999583 75.5753303 13.0999583"></polygon>
            <path d="M106.935942,30.0000525 L108.802026,30.0000525 L108.802026,17.4987815 L106.935942,17.4987815 L106.935942,30.0000525 Z M123.742953,22.0020643 L121.603912,27.4218264 L121.539994,27.4218264 L119.31995,22.0020643 L117.309951,22.0020643 L120.638911,29.5773497 L118.740869,33.7909112 L120.687955,33.7909112 L125.817876,22.0020643 L123.742953,22.0020643 Z M113.16091,28.579988 C112.548865,28.579988 111.697028,28.2746691 111.697028,27.5183064 C111.697028,26.5535067 112.75891,26.1836669 113.674867,26.1836669 C114.495952,26.1836669 114.881067,26.3605468 115.379949,26.6019477 C115.235028,27.7597073 114.237868,28.579988 113.16091,28.579988 Z M113.38603,21.7285034 C112.034908,21.7285034 110.635949,22.3238652 110.056868,23.6426257 L111.712907,24.3340655 C112.066867,23.6426257 112.725946,23.4171038 113.417989,23.4171038 C114.38299,23.4171038 115.363869,23.9963856 115.379949,25.0257063 L115.379949,25.1543462 C115.042068,24.9611853 114.318871,24.6719464 113.433868,24.6719464 C111.648989,24.6719464 109.830944,25.652625 109.830944,27.4863474 C109.830944,29.1590688 111.295028,30.2366294 112.934986,30.2366294 C114.19003,30.2366294 114.880866,29.6738296 115.316031,29.0145499 L115.379949,29.0145499 L115.379949,29.9793495 L117.180909,29.9793495 L117.180909,25.1863052 C117.180909,22.967266 115.52487,21.7285034 113.38603,21.7285034 Z M101.854061,23.5238348 L99.200058,23.5238348 L99.200058,19.2386771 L101.854061,19.2386771 C103.249001,19.2386771 104.04094,20.3936629 104.04094,21.3811755 C104.04094,22.3499952 103.249001,23.5238348 101.854061,23.5238348 Z M101.806022,17.4987815 L97.3349796,17.4987815 L97.3349796,30.0000525 L99.200058,30.0000525 L99.200058,25.2636902 L101.806022,25.2636902 C103.873909,25.2636902 105.907024,23.7664417 105.907024,21.3811755 C105.907024,18.9960903 103.873909,17.4987815 101.806022,17.4987815 Z M77.4249316,28.5824 C76.1359191,28.5824 75.0565494,27.5030304 75.0565494,26.0206559 C75.0565494,24.5226034 76.1359191,23.4269528 77.4249316,23.4269528 C78.6976632,23.4269528 79.6964318,24.5226034 79.6964318,26.0206559 C79.6964318,27.5030304 78.6976632,28.5824 77.4249316,28.5824 Z M79.5675909,22.7019461 L79.5030699,22.7019461 C79.084387,22.2026622 78.2783773,21.7516184 77.2637297,21.7516184 C75.1371504,21.7516184 73.1878531,23.6203148 73.1878531,26.0206559 C73.1878531,28.4051181 75.1371504,30.2577344 77.2637297,30.2577344 C78.2783773,30.2577344 79.084387,29.8064896 79.5030699,29.2913268 L79.5675909,29.2913268 L79.5675909,29.9035725 C79.5675909,31.530868 78.6976632,32.4007957 77.2960907,32.4007957 C76.1522001,32.4007957 75.4432733,31.578907 75.1530294,30.8862612 L73.526136,31.562827 C73.9934608,32.6906376 75.2340324,34.0761301 77.2960907,34.0761301 C79.4869899,34.0761301 81.3398072,32.7871175 81.3398072,29.6456896 L81.3398072,22.0093003 L79.5675909,22.0093003 L79.5675909,22.7019461 Z M82.6284178,30.0000525 L84.4973151,30.0000525 L84.4973151,17.4983795 L82.6284178,17.4983795 L82.6284178,30.0000525 Z M87.2522202,25.875735 C87.2037792,24.2323595 88.5249517,23.3947928 89.4752794,23.3947928 C90.2169691,23.3947928 90.8448929,23.7652357 91.0539328,24.2972825 L87.2522202,25.875735 Z M93.0518721,24.4582835 C92.6979113,23.5073528 91.6179386,21.7516184 89.4109594,21.7516184 C87.2198592,21.7516184 85.3996038,23.4753938 85.3996038,26.0047769 C85.3996038,28.3890381 87.2037792,30.2577344 89.6202003,30.2577344 C91.5698996,30.2577344 92.6979113,29.0656038 93.1650351,28.3729581 L91.7150216,27.4061484 C91.2320188,28.1152762 90.57093,28.5824 89.6202003,28.5824 C88.6698727,28.5824 87.9933069,28.1472352 87.5581421,27.2935885 L93.2450331,24.9412863 L93.0518721,24.4582835 Z M47.743674,23.0565099 L47.743674,24.8608863 L52.0613535,24.8608863 C51.9323116,25.875735 51.5940287,26.6168217 51.0784639,27.1323865 C50.4503391,27.7609133 49.4676504,28.4535591 47.743674,28.4535591 C45.08545,28.4535591 43.0073117,26.3108998 43.0073117,23.6526757 C43.0073117,20.9944517 45.08545,18.8515914 47.743674,18.8515914 C49.1776075,18.8515914 50.2246162,19.4155771 50.9980639,20.140604 L52.2705944,18.867993 C51.1914258,17.8366825 49.7572913,17.0472754 47.743674,17.0472754 C44.1027613,17.0472754 41.0417334,20.011763 41.0417334,23.6526757 C41.0417334,27.2935885 44.1027613,30.2577344 47.743674,30.2577344 C49.7094533,30.2577344 51.1914258,29.6137306 52.3511954,28.4051181 C53.543326,27.2127865 53.9139699,25.5374521 53.9139699,24.1843206 C53.9139699,23.7652357 53.8820109,23.3789138 53.8170879,23.0565099 L47.743674,23.0565099 Z M58.8225891,28.5824 C57.5335766,28.5824 56.421846,27.5191104 56.421846,26.0047769 C56.421846,24.4741625 57.5335766,23.4269528 58.8225891,23.4269528 C60.1111997,23.4269528 61.2229303,24.4741625 61.2229303,26.0047769 C61.2229303,27.5191104 60.1111997,28.5824 58.8225891,28.5824 Z M58.8225891,21.7516184 C56.470287,21.7516184 54.5531496,23.5397138 54.5531496,26.0047769 C54.5531496,28.4535591 56.470287,30.2577344 58.8225891,30.2577344 C61.1744893,30.2577344 63.0918276,28.4535591 63.0918276,26.0047769 C63.0918276,23.5397138 61.1744893,21.7516184 58.8225891,21.7516184 Z M68.1359209,28.5824 C66.8473103,28.5824 65.7353787,27.5191104 65.7353787,26.0047769 C65.7353787,24.4741625 66.8473103,23.4269528 68.1359209,23.4269528 C69.4245314,23.4269528 70.536262,24.4741625 70.536262,26.0047769 C70.536262,27.5191104 69.4245314,28.5824 68.1359209,28.5824 Z M68.1359209,21.7516184 C65.7836187,21.7516184 63.8666824,23.5397138 63.8666824,26.0047769 C63.8666824,28.4535591 65.7836187,30.2577344 68.1359209,30.2577344 C70.487821,30.2577344 72.4051594,28.4535591 72.4051594,26.0047769 C72.4051594,23.5397138 70.487821,21.7516184 68.1359209,21.7516184 Z" id="Shape" fill="#FFFFFF"></path>
            <path d="M10.5097838,32.3895397 L10.4354741,32.3183857 C10.1444865,32.0104538 9.9726919,31.532275 9.9726919,30.9131952 L9.9726919,31.0589201 L9.9726919,8.9429783 C9.9726919,8.94098841 9.9726919,8.93948091 9.9726919,8.93787291 C9.9726919,8.93978241 9.9726919,8.94137031 9.9726919,8.9433803 L9.9726919,9.08948715 C9.9726919,8.41907199 10.1729883,7.91407977 10.5085778,7.61127337 L22.8984748,20.000708 L10.5097838,32.3895397 Z M9.9726919,8.93668701 C9.9726919,8.88157283 9.9741793,8.82808675 9.9769933,8.77538456 C9.9741793,8.82768475 9.9726919,8.88157283 9.9726919,8.93668701 Z" id="Shape" fill="url(#linearGradient-1)"></path>
            <path d="M27.0276163,24.2783885 L27.1218853,24.2249225 L32.0148266,21.4448925 C32.4813474,21.1795726 32.7920933,20.8581737 32.9472652,20.5178808 C32.7924953,20.8581737 32.4815484,21.1799746 32.0148266,21.4452945 L27.1218853,24.2253245 L27.0276163,24.2783885 Z M27.0288223,24.1318596 L22.8984748,20.000708 L27.0284203,15.8702198 L32.0148266,18.7030123 C32.6479763,19.0628223 33.0035452,19.526509 33.0628402,20.000306 C33.0628402,20.000708 33.0628402,20.001512 33.0628402,20.002316 C33.0035452,20.4748669 32.6479763,20.9389757 32.0148266,21.2987656 L27.0288223,24.1318596 Z" id="Shape" fill="url(#linearGradient-2)"></path>
            <path d="M11.3929976,32.8612865 C11.0468958,32.8612865 10.7448934,32.7489275 10.5093818,32.5362696 L10.5097838,32.5358676 C10.7452954,32.7485255 11.0476998,32.8612865 11.3937815,32.8612865 C11.4237908,32.8612865 11.4542825,32.8604825 11.4851963,32.8590755 C11.4538805,32.8604825 11.4229868,32.8612865 11.3929976,32.8612865 Z M11.3933996,32.7147586 C11.0472978,32.7151596 10.7452954,32.6023986 10.5097838,32.3899417 L10.5097838,32.3895397 L22.8984748,20.000909 L27.0288223,24.1320606 L12.5136928,32.3792887 C12.1120949,32.6070216 11.731582,32.7147586 11.3933996,32.7147586 Z M10.5062864,32.5336566 C10.4843975,32.5137576 10.4628905,32.4926526 10.4417855,32.4707436 L10.5062864,32.5336566 Z" id="Shape" fill="url(#linearGradient-3)"></path>
            <path d="M22.8984748,20.000708 L10.5085979,7.61119297 C10.7441095,7.39909785 11.0457099,7.28659819 11.3914097,7.28659819 C11.7304966,7.28659819 12.1112909,7.39479645 12.5136928,7.62289117 L27.0284203,15.8701997 L22.8984748,20.000708 Z M27.1218853,15.7768955 L12.5136928,7.47688482 C12.1112909,7.2486896 11.7304966,7.14049134 11.3914097,7.14049134 C11.3898017,7.14049134 11.3886962,7.14049134 11.3871083,7.14049134 C11.3890982,7.14049134 11.3906057,7.14049134 11.3929976,7.14049134 C11.7313006,7.14049134 12.1116929,7.2482876 12.5136928,7.47650292 L27.1218853,15.7768955 Z" id="Shape" fill="url(#linearGradient-4)"></path>
            <path d="M11.4852164,32.8590755 C11.7996004,32.8409855 12.1477121,32.7328476 12.5137129,32.5254156 L27.0276163,24.2785895 L12.5137129,32.5254156 C12.1480136,32.7332496 11.7996004,32.8409855 11.4852164,32.8590755 Z" id="Shape" fill="#000000"></path>
            <path d="M27.0276163,24.2783885 L27.1218853,24.2249225 L27.0276163,24.2783885 Z" id="Path" fill="url(#linearGradient-5)"></path>
            <path d="M11.3938016,32.8612865 C11.0476998,32.8612865 10.7453155,32.7485255 10.5098039,32.5358676 L10.5094019,32.5362696 C10.508618,32.5354656 10.507412,32.5344606 10.5063065,32.5336566 L10.4418056,32.4707436 C10.4398157,32.4687336 10.4379062,32.4665226 10.4355143,32.4641106 L10.5098039,32.3899417 C10.7453155,32.6023986 11.0473179,32.7151596 11.3933996,32.7147576 C11.7316021,32.7147576 12.112115,32.6070216 12.5137129,32.3792887 L27.0288223,24.1320606 L27.1218853,24.2251235 L27.0276163,24.2785895 L12.5137129,32.5254156 C12.1477121,32.7328476 11.7996004,32.8409855 11.4852164,32.8590755 C11.4543026,32.8604825 11.4238109,32.8612865 11.3938016,32.8612865 Z" id="Path" fill="url(#linearGradient-6)"></path>
            <path d="M10.4354741,32.4645126 C10.1444865,32.1565808 9.9726919,31.6784019 9.9726919,31.0593221 L9.9726919,31.0589201 C9.9726919,31.6784019 10.1444865,32.1561788 10.4354741,32.4641106 L10.4354741,32.4645126 Z" id="Path" fill="#000000"></path>
            <path d="M10.4354741,32.4641106 C10.1444865,32.1561788 9.9726919,31.6784019 9.9726919,31.0589201 L9.9726919,30.9131952 C9.9726919,31.532275 10.1444865,32.0104538 10.4354741,32.3183857 L10.5097838,32.3895397 L10.4354741,32.4641106 Z" id="Path" fill="url(#linearGradient-7)"></path>
            <polygon id="Path" fill="url(#linearGradient-8)" points="10.4355143 32.4641106 10.5098039 32.3895397 10.5098039 32.3897407"></polygon>
            <path d="M32.9472652,20.5178808 C33.0242482,20.3490409 33.0628402,20.175779 33.0628402,20.002115 C33.0628402,20.001914 33.0628402,20.001512 33.0628402,20.001512 C33.0628402,20.175377 33.0242482,20.3486389 32.9472652,20.5178808 Z" id="Path" fill="#000000"></path>
            <path d="M27.1218853,24.2251235 L27.0288223,24.1320606 L32.0148266,21.2987656 C32.6479763,20.9391767 33.0035452,20.4750679 33.0628402,20.002316 C33.0628402,20.175779 33.0242482,20.3492419 32.9472652,20.5180818 C32.7920933,20.8581737 32.4813474,21.1797736 32.0148266,21.4448925 L27.1218853,24.2251235 Z" id="Path" fill="url(#linearGradient-9)"></path>
            <path d="M33.0628416,20.000708 L33.0628416,20.000306 C33.0624382,19.4771836 32.7128993,18.9541818 32.0148266,18.5572873 L27.1218853,15.777197 L27.1214833,15.777197 L27.1218853,15.7768955 L32.0148266,18.5568853 C32.7137033,18.9537999 33.0636442,19.4775856 33.0628416,20.000708 Z" id="Path" fill="#404040"></path>
            <path d="M33.0628402,20.000306 C33.0035452,19.5264889 32.6479763,19.0628022 32.0148266,18.7029922 L27.0284203,15.8701997 L27.1214833,15.777197 L27.1218853,15.777197 L32.0148266,18.5573074 C32.7128993,18.9542019 33.0624382,19.4772037 33.0628402,20.000306 Z" id="Path" fill="url(#linearGradient-10)"></path>
            <path d="M9.9772747,8.76475167 C10.0351828,7.73744103 10.5937817,7.14404904 11.3839727,7.14055164 C11.0413884,7.14254154 10.7429839,7.2550412 10.5093818,7.46554842 L10.5093818,7.46514642 L10.5065879,7.46794032 C10.4819855,7.49015082 10.4585891,7.51364771 10.4354741,7.5378481 C10.1729883,7.8155496 10.0073845,8.23153905 9.9772747,8.76475167 Z" id="Shape" fill="#404040"></path>
            <path d="M9.9726919,9.08938665 L9.9726919,8.9432798 C9.9726919,8.94126981 9.9726919,8.93968191 9.9726919,8.93777241 C9.9726919,8.93737041 9.9726919,8.93696841 9.9726919,8.93658651 C9.9726919,8.88147233 9.97546749,8.82758425 9.9807186,8.77528406 C9.9807186,8.77448006 9.9807186,8.77367606 9.9807186,8.77287206 C9.9807186,8.77216856 9.9806811,8.77138467 9.98124372,8.77058067 C9.98124372,8.76897267 9.98124372,8.76748527 9.98124372,8.76587727 C9.98124372,8.76547527 9.98124372,8.76507327 9.98124372,8.76467127 C10.0374307,8.23147875 10.3464588,7.8154692 10.8362754,7.5377677 L10.9726919,7.61117287 C10.3464588,7.91397927 9.9726919,8.41897149 9.9726919,9.08938665 Z" id="Shape" fill="url(#linearGradient-11)"></path>
            <path d="M27.0284203,15.8701796 L12.5137129,7.62289117 C12.111311,7.39477635 11.7305167,7.28657809 11.3914097,7.28657809 C11.0457099,7.28657809 10.7441095,7.39907775 10.508618,7.61117287 L10.4355143,7.5377878 C10.4586092,7.51358741 10.4820056,7.49009052 10.506608,7.46788002 C10.507412,7.46707602 10.508618,7.46629212 10.5094019,7.46548812 C10.743004,7.2549809 11.0414085,7.14248124 11.3840129,7.14049134 C11.3848169,7.14049134 11.3859023,7.14049134 11.3871083,7.14049134 C11.3887163,7.14049134 11.3898017,7.14049134 11.3914097,7.14049134 C11.7305167,7.14049134 12.111311,7.2486896 12.5137129,7.47688482 L27.1218853,15.7768754 L27.1214833,15.7771769 L27.0284203,15.8701796 Z" id="Path" fill="url(#linearGradient-12)"></path>
        </g>
    </g>
</svg>